HIERARCHY
ROOT Hips
{
	OFFSET 59.642200 -27.380615 97.031891
	CHANNELS 6 Xposition Yposition Zposition Xrotation Yrotation Zrotation
	JOINT spine
	{
		OFFSET 0.000000 -0.458069 7.965683
		CHANNELS 3 Xrotation Yrotation Zrotation
		JOINT spine1
		{
			OFFSET 0.000000 -0.000002 10.243103
			CHANNELS 3 Xrotation Yrotation Zrotation
			JOINT spine2
			{
				OFFSET 0.000000 -0.000002 9.814751
				CHANNELS 3 Xrotation Yrotation Zrotation
				JOINT Neck
				{
					OFFSET 0.000000 -1.201384 25.198601
					CHANNELS 3 Xrotation Yrotation Zrotation
					JOINT Head
					{
						OFFSET 0.000000 0.000000 7.613144
						CHANNELS 3 Xrotation Yrotation Zrotation
						End Site
						{
							OFFSET 0.000000 6.077326 18.428101
						}
					}
				}
				JOINT RightShoulder
				{
					OFFSET -4.132702 0.575449 10.599205
					CHANNELS 3 Xrotation Yrotation Zrotation
					JOINT RightArm
					{
						OFFSET 0.000000 -0.000002 13.901794
						CHANNELS 3 Xrotation Yrotation Zrotation
						JOINT RightArmRoll
						{
							OFFSET 0.000000 0.000000 7.017883
							CHANNELS 3 Xrotation Yrotation Zrotation
							JOINT RightForeArm
							{
								OFFSET 0.000000 -0.000004 20.440598
								CHANNELS 3 Xrotation Yrotation Zrotation
								JOINT RightForeArmRoll
								{
									OFFSET 0.000000 -0.000002 7.875153
									CHANNELS 3 Xrotation Yrotation Zrotation
									JOINT RightHand
									{
										OFFSET 0.000000 -0.000002 15.803696
										CHANNELS 3 Xrotation Yrotation Zrotation
										End Site
										{
											OFFSET 0.000000 0.000000 0.100006
										}
									}
								}
							}
						}
					}
				}
				JOINT LeftShoulder
				{
					OFFSET 4.132702 0.575449 10.599205
					CHANNELS 3 Xrotation Yrotation Zrotation
					JOINT LeftArm
					{
						OFFSET 0.000000 -0.000002 13.901794
						CHANNELS 3 Xrotation Yrotation Zrotation
						JOINT LeftArmRoll
						{
							OFFSET 0.000000 0.000000 7.017883
							CHANNELS 3 Xrotation Yrotation Zrotation
							JOINT LeftForeArm
							{
								OFFSET 0.000000 -0.000004 20.440598
								CHANNELS 3 Xrotation Yrotation Zrotation
								JOINT LeftForeArmRoll
								{
									OFFSET 0.000000 -0.000002 7.875153
									CHANNELS 3 Xrotation Yrotation Zrotation
									JOINT LeftHand
									{
										OFFSET 0.000000 -0.000002 15.803696
										CHANNELS 3 Xrotation Yrotation Zrotation
										End Site
										{
											OFFSET 0.000000 0.000000 0.100006
										}
									}
								}
							}
						}
					}
				}
			}
		}
	}
	JOINT RightUpLeg
	{
		OFFSET -7.060482 1.086090 -1.294701
		CHANNELS 3 Xrotation Yrotation Zrotation
		JOINT RightUpLegRoll
		{
			OFFSET 0.000000 -0.000004 18.530800
			CHANNELS 3 Xrotation Yrotation Zrotation
			JOINT RightLeg
			{
				OFFSET 0.000000 0.000004 -22.947601
				CHANNELS 3 Xrotation Yrotation Zrotation
				JOINT RightLegRoll
				{
					OFFSET 0.000000 -0.000004 23.022598
					CHANNELS 3 Xrotation Yrotation Zrotation
					JOINT RightFoot
					{
						OFFSET 0.000000 -0.000002 19.162506
						CHANNELS 3 Xrotation Yrotation Zrotation
						JOINT RightToeBase
						{
							OFFSET 0.000000 -0.000004 16.018799
							CHANNELS 3 Xrotation Yrotation Zrotation
							End Site
							{
								OFFSET 0.006790 0.894205 7.757812
							}
						}
					}
				}
			}
		}
	}
	JOINT LeftUpLeg
	{
		OFFSET 7.060482 1.086090 -1.294701
		CHANNELS 3 Xrotation Yrotation Zrotation
		JOINT LeftUpLegRoll
		{
			OFFSET 0.000000 -0.000004 18.530899
			CHANNELS 3 Xrotation Yrotation Zrotation
			JOINT LeftLeg
			{
				OFFSET 0.000000 -0.000004 22.947502
				CHANNELS 3 Xrotation Yrotation Zrotation
				JOINT LeftLegRoll
				{
					OFFSET 0.000000 -0.000004 23.235504
					CHANNELS 3 Xrotation Yrotation Zrotation
					JOINT LeftFoot
					{
						OFFSET 0.000000 -0.000002 18.949600
						CHANNELS 3 Xrotation Yrotation Zrotation
						JOINT LeftToeBase
						{
							OFFSET 0.000000 -0.000004 16.018799
							CHANNELS 3 Xrotation Yrotation Zrotation
							End Site
							{
								OFFSET -0.030426 0.894207 7.757812
							}
						}
					}
				}
			}
		}
	}
}
MOTION
Frames: 7
Frame Time: 0.041667
59.795700 -25.896019 96.976982 -5.179636 -0.102352 0.265236 -0.404571 -0.046358 -0.208908 3.193535 -0.095586 -0.417885 4.838587 -0.100536 -0.416862 7.656246 2.405509 2.625091 7.793969 -0.800637 2.591523 -9.399139 -70.388132 -11.781217 -54.225586 -116.495911 -46.741276 0.000001 -0.000000 0.000000 13.035391 -7.831321 -0.068853 -0.000016 0.000009 -3.002209 -5.000179 -7.998975 0.000124 -5.962540 63.764460 7.445498 -44.206555 121.510090 50.627428 0.000003 0.000029 0.000001 8.664227 15.678467 -0.847084 0.000003 -0.000011 3.000010 -5.000195 7.998824 -0.000176 4.618807 -176.924999 3.419753 -179.999991 0.000005 -1.222995 174.470052 -1.136689 -0.479046 -0.000007 -0.000005 0.088067 69.563346 6.931387 1.997221 25.456957 -7.355614 0.000002 2.865343 174.503847 -2.458766 -0.000005 -0.000004 -1.165770 -7.174092 2.399201 0.316549 -0.000010 0.000000 -0.122583 70.259718 -6.903928 -2.021535 25.456953 7.355613 -0.000002 
59.808300 -25.905619 96.987190 -5.171734 -0.099708 0.250957 -0.405112 -0.047059 -0.209971 3.192444 -0.096562 -0.420284 4.837498 -0.101545 -0.419238 7.663747 2.356526 2.636145 7.911026 -0.770597 2.603687 -9.446304 -70.394853 -11.833887 -54.233806 -116.473713 -46.633421 0.000002 -0.000000 -0.000000 12.962949 -7.750256 -0.083811 -0.000015 0.000009 -3.002210 -5.000181 -7.998974 0.000124 -5.961356 63.760595 7.443829 -44.131201 121.443618 50.562354 0.000002 0.000030 0.000001 8.720258 15.698710 -0.856538 0.000002 -0.000011 3.000010 -5.000192 7.998827 -0.000176 4.606681 -176.924945 3.418182 -179.999991 0.000005 -1.222995 174.474546 -1.138683 -0.479149 -0.000006 -0.000005 0.088065 69.557520 6.931370 1.997181 25.456952 -7.355615 0.000002 2.857643 174.502809 -2.459067 -0.000005 -0.000005 -1.165770 -7.174284 2.401572 0.316550 -0.000010 0.000000 -0.122583 70.260674 -6.903913 -2.021572 25.456953 7.355613 -0.000001 
59.806999 -25.900515 96.983086 -5.164065 -0.096985 0.236477 -0.405612 -0.047752 -0.211027 3.191445 -0.097500 -0.422689 4.836497 -0.102516 -0.421621 7.670049 2.306382 2.647209 8.029518 -0.737921 2.615433 -9.494311 -70.402318 -11.887534 -54.243815 -116.450996 -46.528133 0.000000 0.000000 -0.000001 12.888966 -7.669724 -0.098536 -0.000012 0.000009 -3.002209 -5.000184 -7.998973 0.000124 -5.959825 63.756155 7.441698 -44.054874 121.376860 50.496760 0.000004 0.000030 0.000001 8.775449 15.719465 -0.866026 0.000002 -0.000011 3.000008 -5.000190 7.998827 -0.000176 4.595039 -176.923906 3.416727 -179.999991 0.000005 -1.222995 174.479436 -1.140691 -0.478247 -0.000006 -0.000005 0.088063 69.551482 6.931378 1.997262 25.456959 -7.355614 0.000002 2.850371 174.502768 -2.459511 -0.000005 -0.000004 -1.165771 -7.174376 2.403983 0.316549 -0.000010 -0.000000 -0.122583 70.261849 -6.903935 -2.021603 25.456953 7.355614 -0.000002 
59.822998 -25.843918 96.978683 -5.156555 -0.094208 0.221856 -0.406087 -0.048440 -0.212078 3.190495 -0.098412 -0.425097 4.835548 -0.103460 -0.424006 7.675501 2.255440 2.658285 8.148988 -0.703388 2.626818 -9.542934 -70.410371 -11.941899 -54.252517 -116.429017 -46.421743 0.000001 0.000001 0.000000 12.814145 -7.589560 -0.113007 -0.000012 0.000009 -3.002208 -5.000180 -7.998973 0.000125 -5.958027 63.751203 7.439237 -43.976392 121.310539 50.429394 0.000005 0.000029 0.000001 8.830052 15.740526 -0.875543 -0.000001 -0.000011 3.000011 -5.000191 7.998825 -0.000174 4.583720 -176.923852 3.415200 -179.999991 0.000005 -1.222995 174.484614 -1.142686 -0.478336 -0.000006 -0.000005 0.088062 69.545451 6.931386 1.997140 25.456953 -7.355614 0.000002 2.843411 174.501744 -2.460144 -0.000004 -0.000004 -1.165770 -7.174401 2.406443 0.316549 -0.000010 0.000000 -0.122583 70.263235 -6.903962 -2.021522 25.456952 7.355613 -0.000002 
59.822601 -25.851816 96.979393 -5.149146 -0.091401 0.207156 -0.406538 -0.049124 -0.213128 3.189585 -0.099310 -0.427508 4.834638 -0.104390 -0.426394 7.680465 2.204038 2.669383 8.269025 -0.667773 2.637946 -9.591934 -70.418677 -11.996682 -54.262718 -116.406381 -46.317302 0.000001 0.000000 0.000000 12.738675 -7.509609 -0.127270 -0.000015 0.000009 -3.002209 -5.000181 -7.998975 0.000124 -5.956057 63.745971 7.436545 -43.896349 121.244901 50.360351 0.000004 0.000029 0.000001 8.884340 15.761775 -0.885100 0.000003 -0.000010 3.000010 -5.000193 7.998825 -0.000175 4.572599 -176.922814 3.413773 -179.999991 0.000005 -1.222995 174.489914 -1.144681 -0.478423 -0.000006 -0.000005 0.088061 69.539297 6.931353 1.997217 25.456953 -7.355614 0.000002 2.836625 174.500706 -2.460853 -0.000004 -0.000004 -1.165770 -7.174393 2.408913 0.316549 -0.000010 0.000000 -0.122583 70.264717 -6.903956 -2.021527 25.456955 7.355613 -0.000001 
59.808697 -25.882217 96.982384 -5.141746 -0.088590 0.192434 -0.406992 -0.049808 -0.214175 3.188675 -0.100204 -0.429919 4.833728 -0.105316 -0.428782 7.685313 2.152528 2.680479 8.389199 -0.631857 2.648891 -9.641056 -70.427071 -12.051616 -54.272939 -116.383760 -46.212968 0.000001 -0.000000 -0.000001 12.663158 -7.429683 -0.141313 -0.000014 0.000009 -3.002209 -5.000180 -7.998974 0.000124 -5.954064 63.740732 7.433826 -43.817043 121.178511 50.292425 0.000003 0.000030 0.000001 8.938542 15.783104 -0.894713 0.000002 -0.000011 3.000008 -5.000194 7.998824 -0.000176 4.561511 -176.922773 3.412268 -179.999991 0.000005 -1.222995 174.495282 -1.146691 -0.478507 -0.000006 -0.000005 0.088061 69.533163 6.931355 1.997202 25.456957 -7.355615 0.000001 2.829878 174.499681 -2.461586 -0.000004 -0.000004 -1.165770 -7.174375 2.411385 0.316549 -0.000010 0.000000 -0.122583 70.266302 -6.903916 -2.021624 25.456953 7.355613 -0.000002 
59.817699 -25.860018 96.980484 -5.134304 -0.085800 0.177751 -0.407452 -0.050493 -0.215225 3.187755 -0.101104 -0.432329 4.832808 -0.106250 -0.431170 7.690419 2.101247 2.691584 8.509092 -0.596415 2.659780 -9.689986 -70.435158 -12.106326 -54.281419 -116.361630 -46.106615 0.000000 -0.000000 0.000000 12.587996 -7.349626 -0.155144 -0.000011 0.000009 -3.002209 -5.000182 -7.998975 0.000124 -5.952162 63.735596 7.431222 -43.737625 121.112218 50.224208 0.000003 0.000030 0.000001 8.992924 15.804315 -0.904358 0.000003 -0.000012 3.000009 -5.000193 7.998826 -0.000176 4.550337 -176.922718 3.410758 -179.999991 0.000005 -1.222995 174.500569 -1.148686 -0.478592 -0.000006 -0.000005 0.088059 69.527009 6.931356 1.997188 25.456953 -7.355613 0.000001 2.823037 174.499640 -2.462229 -0.000005 -0.000005 -1.165770 -7.174378 2.413854 0.316549 -0.000010 -0.000000 -0.122583 70.267784 -6.903910 -2.021632 25.456952 7.355614 -0.000001 
